<?xml version="1.0" standalone="no"?>
<!DOCTYPE svg PUBLIC "-//W3C//DTD SVG 20010904//EN"
 "http://www.w3.org/TR/2001/REC-SVG-20010904/DTD/svg10.dtd">
<svg version="1.0" xmlns="http://www.w3.org/2000/svg"
 width="700.000000pt" height="700.000000pt" viewBox="0 0 700.000000 700.000000"
 preserveAspectRatio="xMidYMid meet">
<metadata>
Created by potrace 1.14, written by Peter Selinger 2001-2017
</metadata>
<g transform="translate(0.000000,700.000000) scale(0.100000,-0.100000)"
fill="#000000" stroke="none">
<path d="M3444 6981 c-23 -14 -419 -655 -1704 -2757 -921 -1506 -1687 -2762
-1703 -2792 -57 -105 -46 -242 28 -343 49 -68 297 -227 605 -388 719 -376
1450 -595 2264 -677 214 -21 691 -29 916 -15 725 45 1383 201 2040 481 420
179 969 493 1045 599 74 102 85 238 28 343 -16 31 -783 1287 -1703 2793 -1287
2104 -1681 2742 -1704 2756 -39 24 -73 24 -112 0z m482 -1064 c-12 -5 -66 -7
-121 -4 -78 3 -121 11 -193 36 -51 17 -102 31 -112 31 -10 0 -61 -14 -112 -31
-97 -33 -230 -48 -301 -35 l-35 7 200 337 c111 185 212 354 225 375 l24 38
223 -373 c207 -347 221 -374 202 -381z m-365 -193 c125 -44 311 -51 458 -18
35 8 65 13 66 12 18 -25 2145 -3512 2145 -3517 0 -10 -309 -213 -415 -273
-555 -315 -1144 -506 -1810 -585 -214 -25 -796 -25 -1010 0 -667 80 -1273 276
-1820 592 -121 69 -405 256 -405 265 0 9 2129 3491 2144 3507 8 9 25 8 71 -3
99 -26 291 -21 400 9 111 30 122 31 176 11z"/>
<path d="M3375 5237 c-68 -23 -126 -57 -177 -105 -226 -211 -165 -589 116
-718 83 -38 171 -51 251 -37 223 38 374 215 375 440 0 167 -101 322 -258 396
-59 28 -79 32 -167 34 -63 2 -115 -2 -140 -10z"/>
<path d="M2481 4587 c-95 -33 -98 -164 -6 -203 47 -19 253 -19 300 0 92 39 89
170 -6 203 -19 7 -83 12 -144 12 -60 0 -125 -5 -144 -12z"/>
<path d="M4231 4587 c-95 -33 -98 -164 -6 -203 47 -19 253 -19 300 0 92 39 89
170 -6 203 -19 7 -83 12 -144 12 -60 0 -125 -5 -144 -12z"/>
<path d="M2513 4145 c-79 -22 -131 -51 -194 -112 -103 -98 -153 -244 -130
-380 37 -220 216 -373 436 -373 219 0 399 154 436 373 23 136 -27 282 -130
380 -31 30 -75 64 -96 75 -102 51 -219 65 -322 37z"/>
<path d="M4263 4145 c-79 -22 -131 -51 -194 -112 -103 -98 -153 -244 -130
-380 37 -220 216 -373 436 -373 219 0 399 154 436 373 23 136 -27 282 -130
380 -31 30 -75 64 -96 75 -102 51 -219 65 -322 37z"/>
<path d="M3334 3921 c-63 -38 -70 -128 -13 -175 30 -25 34 -26 179 -26 145 0
149 1 179 26 57 47 50 137 -13 175 -26 16 -52 19 -166 19 -114 0 -140 -3 -166
-19z"/>
<path d="M2671 3044 c-31 -22 -52 -75 -45 -113 3 -16 19 -42 36 -58 29 -28 32
-28 165 -31 90 -2 145 0 164 9 45 18 69 55 69 105 0 34 -6 48 -31 73 l-31 31
-152 0 c-124 0 -156 -3 -175 -16z"/>
<path d="M3971 3029 c-56 -55 -36 -148 38 -178 19 -9 74 -11 164 -9 133 3 136
3 165 31 37 35 46 77 28 121 -25 60 -43 66 -212 66 l-152 0 -31 -31z"/>
<path d="M1883 2949 c-206 -40 -353 -222 -353 -435 0 -403 492 -590 767 -291
128 138 148 352 50 519 -32 54 -121 139 -175 167 -85 43 -196 59 -289 40z"/>
<path d="M4934 2946 c-83 -19 -137 -49 -202 -109 -121 -115 -168 -273 -127
-430 28 -108 89 -194 182 -258 167 -115 406 -92 553 53 116 114 159 288 111
446 -65 215 -296 348 -517 298z"/>
<path d="M3395 2616 c-155 -39 -281 -161 -320 -312 -55 -211 45 -423 243 -517
63 -30 73 -32 182 -32 109 0 119 2 182 32 380 180 328 722 -79 828 -68 18
-139 18 -208 1z"/>
</g>
</svg>
